<svg width="800" height="236" viewBox="0 0 800 236" fill="none" xmlns="http://www.w3.org/2000/svg">
<path d="M240.715 46.6018H297.575C302.871 46.6018 307.164 42.3096 307.164 37.0132C307.164 31.7169 302.871 27.4247 297.575 27.4247H240.715C235.418 27.4247 231.126 31.7169 231.126 37.0132C231.126 42.3096 235.418 46.6018 240.715 46.6018Z" fill="white"/>
<path d="M733.133 35.5261V41.7012H715.614V9.5969H696.437V41.7029H637.505L618.555 10.432H558.616V0.259399H233.598C224.029 0.259399 214.822 4.77995 208.973 12.3514L196.838 28.0575L16.4156 28.047C11.9822 28.0505 7.82773 29.7939 4.71929 32.9547C1.61085 36.1154 -0.0645298 40.2977 0.00520525 44.7311L1.02159 109.757C1.10179 114.904 3.51636 119.616 7.64816 122.686C10.5282 124.827 13.9313 125.939 17.4076 125.939C18.9173 125.939 20.4393 125.728 21.9386 125.303L172.205 82.5903C174.712 82.4595 199.104 81.1956 211.124 81.0195C213.685 90.1025 213.161 99.9299 209.531 108.717L190.312 155.245L231.149 172.44L265.868 107.571H283.363C300.807 107.571 315.401 95.1426 318.759 78.6764L328.773 78.3539C328.157 133.242 347.059 186.145 382.62 228.417L388.785 235.744L440.579 192.214L434.407 184.874C408.998 154.653 395.464 115.519 396.513 76.1694L558.616 70.9393V60.8818H733.135V67.0638H800.002V35.5296H733.133V35.5261ZM20.1377 105.875L19.2207 47.2224L161.883 47.1143V65.5836L20.1377 105.875ZM181.06 62.9459V47.2346H206.253L224.147 24.0756C226.393 21.1694 229.925 19.4348 233.598 19.4348H539.437V25.2838H473.999C455.631 25.2838 440.526 38.2266 437.266 55.6639C437.266 55.6639 191.119 62.4665 181.06 62.9459ZM222.484 147.984L215.307 144.961L227.254 116.035C231.871 104.862 233.016 92.5345 230.741 80.7824L258.76 80.2053L222.484 147.984ZM283.359 88.3922H276.128L280.671 79.902L298.346 79.3319C295.504 84.7137 289.857 88.3922 283.359 88.3922ZM413.755 189.708L409.606 193.199C403.501 198.335 397.395 203.469 391.288 208.6C362.415 170.972 347.238 125.141 347.953 77.7332L377.305 76.7866C376.489 117.219 389.426 157.372 413.755 189.708ZM457.422 55.0153C460.3 48.7496 466.611 44.4627 473.999 44.4627H539.437V52.3689L457.422 55.0153ZM558.614 29.6091H607.751L615.08 41.7029H558.614V29.6091Z" fill="white"/>
</svg>
